<?xml version="1.0" encoding="utf-8"?>
<!-- Generator: Adobe Illustrator 24.0.2, SVG Export Plug-In . SVG Version: 6.00 Build 0)  -->
<svg version="1.1" id="Layer" xmlns="http://www.w3.org/2000/svg" xmlns:xlink="http://www.w3.org/1999/xlink" x="0px" y="0px"
	 viewBox="0 0 512 512" style="enable-background:new 0 0 512 512;" xml:space="preserve">
<path d="M256,6C118.1,6,6,118.1,6,256s112.1,250,250,250s250-112.1,250-250S393.9,6,256,6z M256,464.3
	c-114.8,0-208.3-93.5-208.3-208.3S141.2,47.7,256,47.7S464.3,141.2,464.3,256S370.8,464.3,256,464.3z"/>
<path d="M335.1,176.9c-8.3-8.3-21.9-8.3-30.1,0L256,225.9l-48.9-48.9c-8.3-8.3-21.9-8.3-30.1,0c-8.3,8.3-8.3,21.9,0,30.1l48.9,48.9
	l-48.9,48.9c-8.3,8.3-8.3,21.9,0,30.1c4.1,4.1,9.6,6.3,15.1,6.3s10.9-2.1,15.1-6.3l48.9-48.9l48.9,48.9c4.1,4.1,9.6,6.3,15.1,6.3
	s10.9-2.1,15.1-6.3c8.3-8.3,8.3-21.9,0-30.1L286.1,256l48.9-48.9C343.5,198.8,343.5,185.2,335.1,176.9L335.1,176.9z"/>
</svg>
