<?xml version="1.0" encoding="utf-8"?>
<!-- Generator: Adobe Illustrator 25.2.3, SVG Export Plug-In . SVG Version: 6.00 Build 0)  -->
<svg version="1.1" id="Layer_3" xmlns="http://www.w3.org/2000/svg" xmlns:xlink="http://www.w3.org/1999/xlink" x="0px" y="0px"
	 viewBox="0 0 512 512" style="enable-background:new 0 0 512 512;" xml:space="preserve">
<style type="text/css">
	.st0{fill:#FFFFFF;}
</style>
<path class="st0" d="M224,184c35.3,0,64-28.7,64-64s-28.7-64-64-64s-64,28.7-64,64C160,155.3,188.7,184,224,184z M192,104
	c0-13.3,10.7-24,24-24v-8h16v8c13.3,0,24,10.7,24,24h-16c0-4.4-3.6-8-8-8v16c13.3,0,24,10.7,24,24s-10.7,24-24,24l0,0v8h-16v-8
	c-13.3,0-24-10.7-24-24h16c0,4.4,3.6,8,8,8v-16C202.7,128,192,117.3,192,104z"/>
<path class="st0" d="M240,136c0-4.4-3.6-8-8-8v16C236.4,144,240,140.4,240,136z"/>
<path class="st0" d="M368,392c0,4.4-3.6,8-8,8H251.3l-29.7,29.7c-0.7,0.7-1.6,1.3-2.5,1.7l-56,24c-1,0.4-2.1,0.7-3.2,0.6
	c-4.4,0-8-3.6-8-8c0-1.1,0.2-2.2,0.6-3.2l19.2-44.8H88c-4.4,0-8-3.6-8-8V232c0-4.4,3.6-8,8-8h252.7l43.3-43.3V24H64v464h320V267.3
	l-16,16V392z M224,40c44.2,0,80,35.8,80,80s-35.8,80-80,80s-80-35.8-80-80C144,75.8,179.8,40,224,40z"/>
<path class="st0" d="M216,96c-4.4,0-8,3.6-8,8s3.6,8,8,8V96z"/>
<path class="st0" d="M344,243.3L190.7,396.6l-15.5,36.2l36.2-15.5L364.7,264L344,243.3z"/>
<path class="st0" d="M433.4,160c-3.9,0-7.6,1.5-10.3,4.3L387.3,200l20.7,20.7l35.7-35.7c5.7-5.7,5.7-15,0-20.7
	C441,161.5,437.2,160,433.4,160z"/>
<path class="st0" d="M355.2,232l20.7-20.7l20.7,20.7l-20.7,20.7L355.2,232z"/>
<path class="st0" d="M308.7,256l16-16H96v144h84.7l16-16H112v-16h100.7l16-16H112v-16h132.7l16-16H112v-16h164.7l16-16H112v-16
	H308.7z"/>
<path class="st0" d="M283.3,368l-16,16H352v-84.7L299.3,352H336v16H283.3z"/>
</svg>
