<?xml version="1.0" encoding="utf-8"?>
<!-- Generator: Adobe Illustrator 25.0.1, SVG Export Plug-In . SVG Version: 6.00 Build 0)  -->
<svg version="1.1" id="Capa_1" xmlns="http://www.w3.org/2000/svg" xmlns:xlink="http://www.w3.org/1999/xlink" x="0px" y="0px"
	 viewBox="0 0 512 512" style="enable-background:new 0 0 512 512;" xml:space="preserve">
<style type="text/css">
	.st0{fill:#FFFFFF;}
</style>
<g>
	<g>
		<path class="st0" d="M231.2,174l94.5-35.9l-19-50.1l-23.5,8.7c-7.9,2.9-16.8-1.1-19.7-9.1c-2.9-7.9,1.1-16.7,9-19.7
			c0,0,0.1,0,0.1,0l23.3-8.6l-12.1-31.9c-3-7.9-11.9-11.9-19.8-8.9L183.6,49L231.2,174z"/>
		<path class="st0" d="M296.6,346l140.8-53.5l-16.3-42.8l-67,25c-7.9,2.9-16.8-1.1-19.7-9.1c-2.9-7.9,1.1-16.7,9-19.7
			c0,0,0.1,0,0.1,0l66.8-24.9l-21.9-57.5c-3-7.9-11.9-11.9-19.8-8.9l-126.5,48.1L296.6,346z"/>
	</g>
	<path class="st0" d="M460.5,316.5l-181.8,69.1L133.7,4.1c-0.6-1.5-1.6-2.7-3-3.4c-1.3-0.7-2.8-0.8-4.2-0.3l-97.3,37
		C13.4,43.3,5.5,61,11.5,76.8c6,15.8,23.7,23.7,39.5,17.7l44.2-16.8l131.1,345.2c0,0,0,0,0,0c-11.5,4.4-20.6,13-25.6,24.2
		c-5,11.2-5.4,23.7-1,35.2c4.4,11.5,13,20.6,24.2,25.6c11.2,5,23.7,5.4,35.2,1.1c0,0,0,0,0.1,0c23.7-9,35.7-35.7,26.7-59.4l197-74.9
		c15.9-6,23.9-23.9,17.9-39.8C494.5,319,476.7,311,460.5,316.5L460.5,316.5z M248,480.3c-7.9,3-16.8-1-19.8-8.9
		c-3-7.9,1-16.8,8.9-19.8s16.8,1,19.8,8.9C259.9,468.4,256,477.3,248,480.3L248,480.3z"/>
</g>
</svg>
