<?xml version="1.0" encoding="utf-8"?>
<!-- Generator: Adobe Illustrator 25.2.3, SVG Export Plug-In . SVG Version: 6.00 Build 0)  -->
<svg version="1.1" id="Layer_1" xmlns="http://www.w3.org/2000/svg" xmlns:xlink="http://www.w3.org/1999/xlink" x="0px" y="0px"
	 viewBox="0 0 512 512" style="enable-background:new 0 0 512 512;" xml:space="preserve">
<style type="text/css">
	.st0{fill:#FFFFFF;}
</style>
<g>
	<path class="st0" d="M198.6,0H265v80.3h-66.4L198.6,0z"/>
	<path class="st0" d="M344.2,162.8c41.6,0,80.1,13.5,111.4,36.3V15c0-8.3-6.7-15-15-15H295v95.3c0,8.3-6.7,15-15,15h-96.4
		c-8.3,0-15-6.7-15-15V0H22.9c-8.3,0-15,6.7-15,15v417.7c0,8.3,6.7,15,15,15h157.5C106.5,324.3,199.5,161.4,344.2,162.8L344.2,162.8
		z"/>
	<path class="st0" d="M495.8,302.4l-141,141c-5.9,5.9-15.4,5.9-21.2,0L253.3,363c-5.9-5.9-5.9-15.4,0-21.2l45.4-45.4
		c5.9-5.9,15.4-5.9,21.2,0l24.3,24.3l95.8-95.8c-103.1-78.7-256.2-3.4-255.4,127.6c0,88.1,71.5,159.6,159.6,159.6
		C451.4,513.5,530.6,403.4,495.8,302.4L495.8,302.4z"/>
	<path class="st0" d="M354.8,352.4c-5.9,5.9-15.4,5.9-21.2,0l-24.3-24.3l-24.2,24.2l59.1,59.1l132.4-132.4c3.9-3.9,3.9-10.2,0-14.1
		l-10.1-10.1c-3.9-3.9-10.2-3.9-14.1,0L354.8,352.4z"/>
</g>
</svg>
