<?xml version="1.0" encoding="utf-8"?>
<!-- Generator: Adobe Illustrator 25.0.1, SVG Export Plug-In . SVG Version: 6.00 Build 0)  -->
<svg version="1.1" id="Capa_1" xmlns="http://www.w3.org/2000/svg" xmlns:xlink="http://www.w3.org/1999/xlink" x="0px" y="0px"
	 viewBox="0 0 512 512" style="enable-background:new 0 0 512 512;" xml:space="preserve">
<style type="text/css">
	.st0{fill:#FFFFFF;}
</style>
<g>
	<g>
		<path class="st0" d="M269.9,104.6h90.3L254.9,0v89.6C254.9,97.9,261.7,104.6,269.9,104.6z"/>
		<path class="st0" d="M269.9,134.6c-24.8,0-45-20.2-45-45V0H15C6.7,0,0,6.7,0,15v481.6c0,8.3,6.7,15,15,15h330.2
			c8.3,0,15-6.7,15-15v-362L269.9,134.6z M271.1,451.4H226c-8.3,0-15-6.7-15-15s6.7-15,15-15h45.1c8.3,0,15,6.7,15,15
			C286.1,444.7,279.4,451.4,271.1,451.4z M271.1,391.3H76c-8.3,0-15-6.7-15-15s6.7-15,15-15h195.1c8.3,0,15,6.7,15,15
			S279.4,391.3,271.1,391.3z M271.1,331.1H76c-8.3,0-15-6.7-15-15s6.7-15,15-15h195.1c8.3,0,15,6.7,15,15S279.4,331.1,271.1,331.1z
			 M271.1,271H76c-8.3,0-15-6.7-15-15s6.7-15,15-15h195.1c8.3,0,15,6.7,15,15S279.4,271,271.1,271z M271.1,210.8H76
			c-8.3,0-15-6.7-15-15s6.7-15,15-15h195.1c8.3,0,15,6.7,15,15S279.4,210.8,271.1,210.8z"/>
	</g>
	<g>
		<path class="st0" d="M431.2,428.3c-2.6,11.1-1,22.9,4.8,33l27.4,47.5c2.5,4.4,8.7,4.4,11.2,0l27.4-47.5c5.8-10.1,7.4-21.9,4.8-33
			H431.2z"/>
		<path class="st0" d="M487.9,29.2c-4-38.9-33.8-38.9-37.8,0l-22.3,216.9c0,0.3-0.1,0.6-0.1,0.9c-4.5,44.7,0.1,89.8,13,132.7
			l5.5,18.5h45.5l5.5-18.5c12.9-43,17.5-88.1,13-132.7c0-0.3-0.1-0.6-0.1-0.9L487.9,29.2z"/>
	</g>
</g>
</svg>
