<?xml version="1.0" encoding="utf-8"?>
<!-- Generator: Adobe Illustrator 25.0.1, SVG Export Plug-In . SVG Version: 6.00 Build 0)  -->
<svg version="1.1" id="Layer_1" xmlns="http://www.w3.org/2000/svg" xmlns:xlink="http://www.w3.org/1999/xlink" x="0px" y="0px"
	 viewBox="0 0 512 512" style="enable-background:new 0 0 512 512;" xml:space="preserve">
<style type="text/css">
	.st0{fill:#FFFFFF;}
</style>
<g>
	<g>
		<path class="st0" d="M203.3,353.6c-5.8-5.8-15.3-5.9-21.2,0L139.6,396c-5.8,5.8-5.9,15.3,0,21.2c5.7,5.7,15.6,5.7,21.2,0
			l42.5-42.4C209.1,368.9,209.1,359.4,203.3,353.6z"/>
	</g>
</g>
<g>
	<g>
		<path class="st0" d="M160.8,311.1c-5.7-5.7-15.5-5.7-21.2,0l-42.4,42.4c-5.8,5.8-5.8,15.4,0,21.2c5.8,5.8,15.4,5.8,21.2,0
			l42.4-42.4C166.7,326.5,166.7,317,160.8,311.1z"/>
	</g>
</g>
<g>
	<g>
		<path class="st0" d="M224.5,417.2c-5.7-5.7-15.6-5.7-21.2,0l-21.3,21.2c-5.8,5.8-5.8,15.4,0,21.2c5.9,5.9,15.4,5.8,21.2,0
			l21.2-21.2C230.4,432.6,230.4,423.1,224.5,417.2z"/>
	</g>
</g>
<g>
	<g>
		<path class="st0" d="M118.4,268.7c-5.9-5.9-15.3-5.9-21.2,0l-42.5,42.4c-5.8,5.8-5.8,15.4,0,21.2c5.9,5.9,15.4,5.9,21.2,0
			l42.4-42.4C124.3,284,124.3,274.6,118.4,268.7z"/>
	</g>
</g>
<g>
	<g>
		<path class="st0" d="M465.5,318.6L277.6,130.7L203.3,205c-17.6,17.6-46.1,17.6-63.7,0s-17.6-46.1,0-63.7l94.1-94.1
			c-19.8-9-53.3-22.9-53.3-22.9c-16.8-6.7-35.9-2.9-48.7,9.9L13.1,152.9c-14,14-17.2,35.9-7.5,53.7l41,70.2l29.4-29.4
			c17.6-17.6,46.1-17.6,63.7,0c8.3,8.3,12.4,19.2,12.8,30.1c10.9,0.5,21.7,4.4,29.6,12.3c8,8,12.5,18.5,13,29.8
			c10.7,0.6,21.3,4.5,29.5,12.7c14.7,14.7,16.3,36.9,6.4,54.1c5.5,2.1,10.6,5.3,14.9,9.6c17.6,17.6,17.6,46.1,0,63.7l-10.6,10.6
			l7.5,7.5c17.6,17.6,46.1,17.6,63.7,0c5.7-5.7,9.5-12.5,11.5-19.7c14.6,3.2,30.3-0.9,41.6-12.1c5.7-5.7,9.5-12.5,11.5-19.7
			c14.4,3.2,30.3-0.9,41.5-12.1c5.7-5.7,9.5-12.5,11.5-19.7c14.6,3.2,30.7-1.3,41.5-12.1C483.1,364.7,483.1,336.2,465.5,318.6z"/>
	</g>
</g>
<g>
	<g>
		<path class="st0" d="M498.8,133.1l-96.7-96.7c-10.2-10.2-24.6-15-39.3-12.6C294.1,38.1,309,36.6,281,42.4L160.9,162.5
			c-0.1,0.1-0.2,0.3-0.3,0.4c-5,5.4-5.8,13.6-0.3,20c6.2,7.2,16.2,6.5,21.8,0.9l95.5-95.5l165.6,165.6c1.4,1.4,2.3,2.3,2.3,2.3
			l55.1-61.4C516.5,177,515.6,150,498.8,133.1z"/>
	</g>
</g>
</svg>
