<?xml version="1.0" encoding="utf-8"?>
<!-- Generator: Adobe Illustrator 25.0.1, SVG Export Plug-In . SVG Version: 6.00 Build 0)  -->
<svg version="1.1" id="Layer_1" xmlns="http://www.w3.org/2000/svg" xmlns:xlink="http://www.w3.org/1999/xlink" x="0px" y="0px"
	 viewBox="0 0 512 512" style="enable-background:new 0 0 512 512;" xml:space="preserve">
<style type="text/css">
	.st0{fill:#FFFFFF;}
</style>
<g>
	<g>
		<path class="st0" d="M467,0H271c0,31.3,0,46.8,0,77.9c4.9-1.2,9.9-1.9,15-1.9c33.1,0,60,26.9,60,60s-26.9,60-60,60
			c-5.1,0-10.1-0.6-15-1.9V241h71.4c12.9,0,19.8,15.3,11.2,25c-4.9,5.5-7.6,12.6-7.6,20c0,16.5,13.5,30,30,30s30-13.5,30-30
			c0-7.4-2.7-14.5-7.6-20c-8.6-9.7-1.7-25,11.2-25c51.5,0,70.1,0,102.4,0V45C512,20.1,491.9,0,467,0z"/>
	</g>
</g>
<g>
	<g>
		<path class="st0" d="M286,106c-7.4,0-14.5,2.7-20,7.6c-9.7,8.6-25,1.6-25-11.2c0-34.8,0-65.5,0-102.4H45C20.1,0,0,20.1,0,45v196
			c16.4,0,22.5,0,77.9,0c-1.2-4.9-1.9-9.9-1.9-15c0-33.1,26.9-60,60-60s60,26.9,60,60c0,5.1-0.6,10.1-1.9,15H241v-71.4
			c0-12.9,15.3-19.8,25-11.2c5.5,4.9,12.6,7.6,20,7.6c16.5,0,30-13.5,30-30S302.5,106,286,106z"/>
	</g>
</g>
<g>
	<g>
		<path class="st0" d="M226,316c5.1,0,10.1,0.6,15,1.9V271h-71.4c-12.9,0-19.8-15.3-11.2-25c4.9-5.5,7.6-12.6,7.6-20
			c0-16.5-13.5-30-30-30s-30,13.5-30,30c0,7.4,2.7,14.5,7.6,20c8.6,9.7,1.7,25-11.2,25c-47.3,0-72.2,0-102.4,0v196
			c0,24.9,20.1,45,45,45h196c0-27.6,0-51.4,0-77.9c-4.9,1.2-9.9,1.9-15,1.9c-33.1,0-60-26.9-60-60S192.9,316,226,316z"/>
	</g>
</g>
<g>
	<g>
		<path class="st0" d="M434.1,271c1.2,4.9,1.9,9.9,1.9,15c0,33.1-26.9,60-60,60s-60-26.9-60-60c0-5.1,0.6-10.1,1.9-15H271v71.4
			c0,12.9-15.3,19.8-25,11.2c-5.5-4.9-12.6-7.6-20-7.6c-16.5,0-30,13.5-30,30s13.5,30,30,30c7.4,0,14.5-2.7,20-7.6
			c9.8-8.6,25-1.6,25,11.2c0,49.7,0,66.2,0,102.4h196c24.9,0,45-20.1,45-45V271C480.7,271,465.2,271,434.1,271z"/>
	</g>
</g>
</svg>
