<?xml version="1.0" encoding="utf-8"?>
<!-- Generator: Adobe Illustrator 25.0.1, SVG Export Plug-In . SVG Version: 6.00 Build 0)  -->
<svg version="1.1" id="Layer_1" xmlns="http://www.w3.org/2000/svg" xmlns:xlink="http://www.w3.org/1999/xlink" x="0px" y="0px"
	 viewBox="0 0 512 512" style="enable-background:new 0 0 512 512;" xml:space="preserve">
<style type="text/css">
	.st0{fill:#FFFFFF;}
</style>
<g>
	<g>
		<path class="st0" d="M436,271H241V76c0-8.3-6.7-15-15-15C101.9,61,0,161.9,0,286s101.9,226,226,226s225-101.9,225-226
			C451,277.7,444.3,271,436,271z"/>
	</g>
</g>
<g>
	<g>
		<path class="st0" d="M286,0c-8.3,0-15,6.7-15,15v211c0,8.3,6.7,15,15,15h211c8.3,0,15-6.7,15-15C512,101.9,410.1,0,286,0z"/>
	</g>
</g>
</svg>
