<?xml version="1.0" encoding="utf-8"?>
<!-- Generator: Adobe Illustrator 25.0.1, SVG Export Plug-In . SVG Version: 6.00 Build 0)  -->
<svg version="1.1" id="Layer_1" xmlns="http://www.w3.org/2000/svg" xmlns:xlink="http://www.w3.org/1999/xlink" x="0px" y="0px"
	 viewBox="0 0 512 512" style="enable-background:new 0 0 512 512;" xml:space="preserve">
<style type="text/css">
	.st0{fill:#FFFFFF;}
</style>
<g>
	<g>
		<path class="st0" d="M256,91c-91,0-165,74-165,165s74,165,165,165s165-74,165-165S347,91,256,91z M286,241c24.8,0,45,20.2,45,45
			v30c0,24.8-20.2,45-45,45h-15v15c0,8.3-6.7,15-15,15c-8.3,0-15-6.7-15-15v-15h-15c-24.8,0-45-20.2-45-45c0-8.3,6.7-15,15-15
			s15,6.7,15,15c0,8.3,6.7,15,15,15h15v-60h-15c-24.8,0-45-20.2-45-45v-30c0-24.8,20.2-45,45-45h15v-15c0-8.3,6.7-15,15-15
			c8.3,0,15,6.7,15,15v15h15c24.8,0,45,20.2,45,45c0,8.3-6.7,15-15,15c-8.3,0-15-6.7-15-15c0-8.3-6.7-15-15-15h-15v60H286z"/>
	</g>
</g>
<g>
	<g>
		<path class="st0" d="M226,181c-8.3,0-15,6.7-15,15v30c0,8.3,6.7,15,15,15h15v-60H226z"/>
	</g>
</g>
<g>
	<g>
		<path class="st0" d="M286,271h-15v60h15c8.3,0,15-6.7,15-15v-30C301,277.7,294.3,271,286,271z"/>
	</g>
</g>
<g>
	<g>
		<path class="st0" d="M256,0C115.4,0,0,115.4,0,256s115.4,256,256,256s256-115.4,256-256S396.6,0,256,0z M256,451
			c-107.5,0-195-87.5-195-195S148.5,61,256,61s195,87.5,195,195S363.5,451,256,451z"/>
	</g>
</g>
</svg>
