<?xml version="1.0" encoding="utf-8"?>
<!-- Generator: Adobe Illustrator 25.0.1, SVG Export Plug-In . SVG Version: 6.00 Build 0)  -->
<svg version="1.1" id="Capa_1" xmlns="http://www.w3.org/2000/svg" xmlns:xlink="http://www.w3.org/1999/xlink" x="0px" y="0px"
	 viewBox="0 0 512 512" style="enable-background:new 0 0 512 512;" xml:space="preserve">
<style type="text/css">
	.st0{fill:#FFFFFF;}
</style>
<g>
	<path class="st0" d="M512,512H0v-49.9c0-8.3,6.7-15,15-15h482c8.3,0,15,6.7,15,15V512z"/>
	<g>
		<g>
			<g>
				<path class="st0" d="M120.1,299.5c1.6,0,3.2,0.3,4.7,0.8l10.3,3.4v-63.9H105v63.9l10.3-3.4C116.9,299.7,118.5,299.5,120.1,299.5
					z"/>
				<path class="st0" d="M165.2,239.8v84.3c0,3.6-1.1,7.2-3.5,10c-3,3.5-7.2,5.4-11.5,5.4c-1.6,0-3.2-0.3-4.7-0.8l-25.3-8.4
					l-25.3,8.4c-5.7,1.9-12.1,0.2-16.2-4.6c-2.4-2.8-3.5-6.4-3.5-10v-84.4H15c-8.3,0-15,6.7-15,15V417h241V254.9c0-8.3-6.7-15-15-15
					L165.2,239.8z"/>
			</g>
			<g>
				<path class="st0" d="M390.4,303.7c1.6,0,3.2,0.3,4.7,0.8l10.3,3.4v-68.1h-30.1v68.1l10.3-3.4
					C387.2,303.9,388.8,303.7,390.4,303.7z"/>
				<path class="st0" d="M435.4,239.8v88.5c0,3.6-1.1,7.2-3.5,10c-3,3.5-7.2,5.4-11.5,5.4c-1.6,0-3.2-0.3-4.7-0.8l-25.3-8.4L365,343
					c-5.7,1.9-12.1,0.2-16.2-4.6c-2.4-2.8-3.5-6.4-3.5-10v-88.6H286c-8.3,0-15,6.7-15,15V417h241V254.7c0-8.3-6.7-15-15-15
					L435.4,239.8z"/>
			</g>
		</g>
		<g>
			<path class="st0" d="M256,55.2c1.6,0,3.2,0.3,4.7,0.8l10.3,3.4V0h-30.1v59.4l10.3-3.4C252.8,55.4,254.4,55.2,256,55.2z"/>
			<path class="st0" d="M369,0h-67.9v80.2c0,4.8-2.3,9.4-6.2,12.2c-2.6,1.9-5.7,2.8-8.8,2.8c-1.6,0-3.2-0.3-4.7-0.8L256,86
				l-25.3,8.4c-4.6,1.5-9.6,0.8-13.5-2.1c-3.9-2.8-6.2-7.4-6.2-12.2V0H143c-8.3,0-15,6.7-15,15v193.4c0,0.5,0,0.9,0.1,1.4h255.9
				c0-0.4,0.1-0.9,0.1-1.4V15C384,6.7,377.3,0,369,0L369,0z"/>
		</g>
	</g>
</g>
</svg>
