<svg id="Layer_5" enable-background="new 0 0 64 64" height="512" viewBox="0 0 64 64" width="512" xmlns="http://www.w3.org/2000/svg"><g><path d="m39 22.997h4v-4h-1v.003h-3z"/><path d="m30 3h4v4h-4z"/><path d="m33 34.997h-2-1v4h4v-4z"/><path d="m42 34.997v14h16v-14h-4v6h-8v-6z"/><path d="m33 16.997h7v-13.997h-4v6h-8v-6h-4v13.997h7z"/><path d="m24 34.997v14h16v-14h-4v6h-8v-6z"/><path d="m48 38.997h4v-4h-1-3z"/><path d="m37 19h-4v13.997h7 2 7v-14h-4v6h-8z"/><path d="m6 34.997v14h16v-14h-4v6h-8v-6z"/><path d="m44 60c0 .551.449 1 1 1h10c.551 0 1-.449 1-1v-3h-12z"/><path d="m42 50.997h-2-16-2-18-1v3.003c0 .551.449 1 1 1h56c.551 0 1-.449 1-1v-3.003h-1z"/><path d="m8 60c0 .551.449 1 1 1h10c.551 0 1-.449 1-1v-3h-12z"/><path d="m13 34.997h-1v4h4v-4z"/><path d="m24 32.997h7v-13.997h-4v5.997h-8v-6h-4v14h7z"/><path d="m25 19h-3v-.003h-1v4h4z"/><path d="m54 19h4v-10h3l-5-5-5 5h3z"/><path d="m6 19h4v-10h3l-5-5-5 5h3z"/></g></svg>