<svg id="Layer_5" enable-background="new 0 0 64 64" height="512" viewBox="0 0 64 64" width="512" xmlns="http://www.w3.org/2000/svg"><g><path d="m26 7h-6v12.991l6-3.428z"/><path d="m55.22 19h-14.44l-.5 2h15.44z"/><path d="m20 3h6v2h-6z"/><path d="m42 3h12v2h-12z"/><path d="m42.28 13h11.44l-.5-2h-10.44z"/><path d="m43.78 7-.5 2h9.44l-.5-2z"/><path d="m54.22 15h-12.44l-.5 2h13.44z"/><path d="m13 47.718v-7.437l2.653-.894c.361-1.286.874-2.521 1.526-3.685l-1.244-2.509.195-.193h-13.13v18h13.55c-.351-.775-.666-1.566-.897-2.388z"/><path d="m48.064 33.194-1.244 2.509c.652 1.164 1.165 2.398 1.526 3.685l2.654.894v7.437l-2.653.894c-.231.822-.545 1.613-.897 2.388h13.55v-18.001h-13.13z"/><path d="m49 41.718-2.322-.782-.131-.533c-.361-1.463-.938-2.857-1.718-4.144l-.284-.47 1.09-2.196-3.228-3.227-2.196 1.09-.47-.285c-1.288-.779-2.683-1.357-4.145-1.717l-.533-.132-.782-2.322h-4.563l-.782 2.322-.533.132c-1.462.36-2.856.938-4.145 1.717l-.47.285-2.196-1.09-3.228 3.227 1.09 2.196-.284.47c-.779 1.287-1.356 2.681-1.718 4.144l-.131.533-2.321.782v4.563l2.322.782.131.533c.361 1.463.938 2.857 1.718 4.144l.284.47-1.09 2.196 3.228 3.227 2.196-1.09.47.285c1.288.779 2.683 1.357 4.145 1.717l.533.132.782 2.323h4.563l.782-2.322.533-.132c1.462-.36 2.856-.938 4.145-1.717l.47-.285 2.196 1.09 3.228-3.227-1.09-2.196.284-.47c.779-1.287 1.356-2.681 1.718-4.144l.131-.533 2.321-.782zm-17 14.282c-6.627 0-12-5.373-12-12s5.373-12 12-12 12 5.373 12 12-5.373 12-12 12z"/><path d="m28 23v-5.277l-14 8v-7.723h-.132l-10.868 7.524v5.476h15.13l3.064-3.064 2.509 1.244c1.164-.653 2.399-1.165 3.685-1.527l.893-2.653h7.438l.894 2.653c1.285.362 2.521.874 3.685 1.527l2.509-1.244 3.063 3.064h15.13v-8z"/><path d="m6 3h6v2h-6z"/><path d="m12 7h-6v14.014l6-4.153z"/><circle cx="32" cy="44" r="8"/></g></svg>