<svg id="Layer_5" enable-background="new 0 0 64 64" height="512" viewBox="0 0 64 64" width="512" xmlns="http://www.w3.org/2000/svg"><g><path d="m12 21c4.962 0 9-4.037 9-9s-4.038-9-9-9-9 4.037-9 9 4.038 9 9 9zm1-8h-2c-1.654 0-3-1.346-3-3s1.346-3 3-3v-2h2v2c1.654 0 3 1.346 3 3h-2c0-.552-.449-1-1-1h-2c-.551 0-1 .448-1 1s.449 1 1 1h2c1.654 0 3 1.346 3 3s-1.346 3-3 3v2h-2v-2c-1.654 0-3-1.346-3-3h2c0 .552.449 1 1 1h2c.551 0 1-.448 1-1s-.449-1-1-1z"/><path d="m3 55v2h4.08c-.047-.328-.08-.66-.08-1s.033-.672.08-1z"/><path d="m31 41h-1-3v2h4z"/><path d="m14 51c-2.757 0-5 2.243-5 5s2.243 5 5 5 5-2.243 5-5-2.243-5-5-5zm0 7c-1.105 0-2-.895-2-2s.895-2 2-2 2 .895 2 2-.895 2-2 2z"/><path d="m13 41v2h4v-2h-3z"/><path d="m20 27h4v2h-4z"/><path d="m23 39h5v-12h-2v4h-8v-4h-2v12h5z"/><path d="m39 53v-29c0-.552-.449-1-1-1h-32c-.551 0-1 .448-1 1v29h2v-14h7v-14h16v14h7v14z"/><path d="m20.92 55c.047.328.08.66.08 1s-.033.672-.08 1h2.16c-.047-.328-.08-.66-.08-1s.033-.672.08-1z"/><path d="m21 41h-2v4h-8v-4h-2v10.111c1.272-1.301 3.042-2.111 5-2.111 2.785 0 5.189 1.639 6.315 4h.685z"/><path d="m59 42.376-6.454-7.376h-11.546v18h2v-16h8.468l5.532 6.638v7.473c.537.549.98 1.188 1.315 1.889h.685z"/><path d="m55 49.685v-4.685h-10v8h.685c1.126-2.361 3.53-4 6.315-4 1.075 0 2.089.251 3 .685z"/><path d="m45 39v4h8.865l-3.333-4z"/><path d="m59 56c0 .34-.033.672-.08 1h2.08v-2h-2.08c.047.328.08.66.08 1z"/><path d="m52 51c-2.757 0-5 2.243-5 5s2.243 5 5 5 5-2.243 5-5-2.243-5-5-5zm0 7c-1.105 0-2-.895-2-2s.895-2 2-2 2 .895 2 2-.895 2-2 2z"/><path d="m33 45h-8v-4h-2v12h.685c1.126-2.361 3.53-4 6.315-4 1.958 0 3.728.81 5 2.111v-10.111h-2z"/><path d="m36.92 55c.047.328.08.66.08 1s-.033.672-.08 1h8.16c-.047-.328-.08-.66-.08-1s.033-.672.08-1z"/><path d="m30 51c-2.757 0-5 2.243-5 5s2.243 5 5 5 5-2.243 5-5-2.243-5-5-5zm0 7c-1.105 0-2-.895-2-2s.895-2 2-2 2 .895 2 2-.895 2-2 2z"/><path d="m52.293 19.293 1.414 1.414 4.707-4.707-4.707-4.707-1.414 1.414 2.293 2.293h-22.586v2h22.586z"/><path d="m28 15h2v2h-2z"/><path d="m57.293 10.293 1.414 1.414 4.707-4.707-4.707-4.707-1.414 1.414 2.293 2.293h-22.586v2h22.586z"/><path d="m33 6h2v2h-2z"/></g></svg>