<svg id="Capa_1" enable-background="new 0 0 512 512" height="512" viewBox="0 0 512 512" width="512" xmlns="http://www.w3.org/2000/svg"><g><circle cx="294.31" cy="429.705" r="15.413"/><path d="m80.732 70.81v-53.125c0-6.173 1.17-12.147 3.386-17.685h-2.977c-38.389 0-69.621 31.309-69.621 69.792v4.701c5.708-2.368 11.959-3.683 18.513-3.683z"/><path d="m266.954 336.85-84.131 11.486v30h-89.376v-30h89.376l4.667-31.213h-94.043v-30h98.529l3.285-21.97c.501-3.163 1.178-6.271 2.004-9.324h-103.818v-30h118.552c2.426-3.196 5.069-6.252 7.949-9.132l20.868-20.868h-147.369v-30h177.369l106.995-106.994v-58.834h-248.228c-5.276-.036-10.181 1.836-13.749 5.354-2.328 2.295-5.103 6.297-5.103 12.331v83.125h-80.698c-10.208 0-18.513 8.327-18.513 18.563v392.626h366.291v-262.236l-62.398 62.397c-13.229 13.229-29.985 21.766-48.459 24.689zm-36.451-234.494h73.567v30h-73.567zm109.22 327.349c0 25.041-20.372 45.413-45.413 45.413s-45.413-20.372-45.413-45.413 20.372-45.413 45.413-45.413 45.413 20.372 45.413 45.413z"/><path d="m438.19 189.385v43.705l-26.971 26.972 21.213 21.213 35.758-35.759v-86.131z"/><path d="m430.589 155.975-54.453-54.453-135.682 135.682c-8.867 8.866-14.59 20.1-16.551 32.485l-7.246 45.765 45.763-7.246c12.384-1.96 23.618-7.683 32.487-16.551z"/><path d="m414.494 44.693h68.841v77.008h-68.841z" transform="matrix(.707 -.707 .707 .707 72.655 341.798)"/></g></svg>