<?xml version="1.0" encoding="utf-8"?>
<!-- Generator: Adobe Illustrator 25.0.1, SVG Export Plug-In . SVG Version: 6.00 Build 0)  -->
<svg version="1.1" id="Glyph" xmlns="http://www.w3.org/2000/svg" xmlns:xlink="http://www.w3.org/1999/xlink" x="0px" y="0px"
	 viewBox="0 0 512 512" style="enable-background:new 0 0 512 512;" xml:space="preserve">
<path id="XMLID_223_" d="M438.6,393.4l-81.2-81.2c16.8-25.3,26.6-55.6,26.6-88.1c0-88.2-71.8-160-160-160S64,135.8,64,224
	s71.8,160,160,160c32.6,0,62.8-9.8,88.1-26.6l81.2,81.2c12.5,12.5,32.8,12.5,45.2,0C451.1,426.1,451.1,405.9,438.6,393.4
	L438.6,393.4z M112,224c0-61.8,50.2-112,112-112s112,50.2,112,112s-50.2,112-112,112S112,285.8,112,224z"/>
</svg>
