<?xml version="1.0" encoding="utf-8"?>
<!-- Generator: Adobe Illustrator 24.0.2, SVG Export Plug-In . SVG Version: 6.00 Build 0)  -->
<svg version="1.1" id="Layer_1" xmlns="http://www.w3.org/2000/svg" xmlns:xlink="http://www.w3.org/1999/xlink" x="0px" y="0px"
	 viewBox="0 0 512 512" style="enable-background:new 0 0 512 512;" xml:space="preserve">
<path d="M355.3,156.7c-6.2-6.3-16.4-6.3-22.6,0l0,0L256,233.4l-76.7-76.7c-6.3-6.3-16.4-6.3-22.6,0s-6.3,16.4,0,22.6l76.7,76.6
	l-76.7,76.7c-6.3,6.3-6.3,16.4,0,22.6c6.3,6.3,16.4,6.3,22.6,0l76.7-76.7l76.7,76.7c6.3,6.3,16.4,6.3,22.6,0
	c6.3-6.3,6.3-16.4,0-22.6L278.6,256l76.7-76.7C361.5,173,361.5,162.9,355.3,156.7L355.3,156.7z"/>
<path d="M256,24C127.9,24,24,127.9,24,256s103.9,232,232,232s232-103.9,232-232S384.1,24,256,24z M256,456
	c-110.5,0-200-89.5-200-200S145.5,56,256,56s200,89.5,200,200S366.5,456,256,456z"/>
</svg>
